<svg xmlns="http://www.w3.org/2000/svg" enable-background="new 0 0 64 64" viewBox="0 0 64 64"><polygon fill="#1c243a" points="17.48 55.69 29 64 32.06 59.76 21.23 51.95"/><path fill="#1c243a" d="M11.79 38.51l-7.75 7.76c-.42.42-.65.97-.65 1.55 0 .59.23 1.14.65 1.56l7.2 7.2c.41.41.97.64 1.55.64.59 0 1.14-.23 1.55-.64l7.75-7.76L11.79 38.51zM21.65 15.9l-.14-.01-1.37 3.34.22.06c8.75 2.41 18.55 12.21 20.97 20.96l.06.22 3.34-1.37-.01-.14C44.12 29.42 31.18 16.49 21.65 15.9z"/><path fill="#1c243a" d="M19.69 20.76l-.17-.04-6.79 16.47 10.68 10.68 16.47-6.79-.04-.17C37.68 32.54 28.07 22.94 19.69 20.76zM40.51 21.3c.32 0 .62-.12.85-.35l7.62-7.62c.47-.47.47-1.23 0-1.7-.23-.23-.53-.35-.85-.35-.32 0-.62.12-.85.35l-7.62 7.62c-.23.23-.35.53-.35.85 0 .32.12.62.35.85C39.89 21.17 40.19 21.3 40.51 21.3zM60.57 23.46c-.14-.53-.62-.89-1.16-.89-.1 0-.2.01-.3.04l-12.07 3.17c-.64.17-1.02.83-.85 1.46.14.53.61.89 1.16.89.1 0 .21-.01.31-.04l12.07-3.17C60.36 24.75 60.74 24.1 60.57 23.46zM33.37 14.42c.1.03.2.04.31.04.54 0 1.02-.37 1.16-.89L38.01 1.5c.17-.64-.21-1.3-.85-1.46C37.05.01 36.95 0 36.85 0c-.55 0-1.02.37-1.16.89l-3.17 12.07C32.35 13.6 32.73 14.25 33.37 14.42z"/></svg>